<?xml version="1.0" encoding="iso-8859-1"?>
<!-- Generator: Adobe Illustrator 16.0.0, SVG Export Plug-In . SVG Version: 6.00 Build 0)  -->
<!DOCTYPE svg PUBLIC "-//W3C//DTD SVG 1.1//EN" "http://www.w3.org/Graphics/SVG/1.1/DTD/svg11.dtd">
<svg xmlns="http://www.w3.org/2000/svg" xmlns:xlink="http://www.w3.org/1999/xlink" version="1.1" id="Capa_1" x="0px" y="0px" width="512px" height="512px" viewBox="0 0 44.648 44.648" style="enable-background:new 0 0 44.648 44.648;" xml:space="preserve">
<g>
	<path d="M40.535,25.883c0-3.42-2.784-6.206-6.206-6.206c-3.421,0-6.205,2.784-6.205,6.206c0,3.422,2.784,6.207,6.205,6.207   C37.751,32.09,40.535,29.304,40.535,25.883z M34.33,30.53c-2.562,0-4.646-2.086-4.646-4.647c0-2.562,2.086-4.646,4.646-4.646   c2.563,0,4.647,2.084,4.647,4.646C38.977,28.444,36.893,30.53,34.33,30.53z M44.648,35.099l-1.372,1.373l-4.767-4.769l1.372-1.372   L44.648,35.099z M24.116,25.941c0,2.567,0.994,4.897,2.607,6.646H7.168v-0.072c-3.838-0.534-7.385-3.621-7.158-7.813   c0.221-4.102,3.428-8.125,7.885-7.885c0.268,0.015,0.531,0.04,0.789,0.077C8.608,16.44,8.577,15.971,8.6,15.483   c0.205-3.797,3.172-7.519,7.295-7.297c2.435,0.132,4.451,1.211,5.746,2.917c1.297-1.811,3.318-3.047,5.743-2.917   c4.131,0.223,7.073,3.163,7.297,7.297c-0.012,0.229-0.037,0.456-0.068,0.682c-0.227-0.015-0.454-0.034-0.684-0.034   C28.509,16.13,24.115,20.522,24.116,25.941z" fill="#ffffff"/>
</g>
</svg>
