<?xml version="1.0" encoding="UTF-8"?>
<svg width="328px" height="337px" viewBox="0 0 328 337" version="1.1" xmlns="http://www.w3.org/2000/svg" xmlns:xlink="http://www.w3.org/1999/xlink">
    <!-- Generator: sketchtool 41.2 (35397) - http://www.bohemiancoding.com/sketch -->
    <title>7C0688A9-CDDD-4A3C-88DA-FC6F0B115044</title>
    <desc>Created with sketchtool.</desc>
    <defs>
        <linearGradient x1="108.591659%" y1="44.1387484%" x2="-23.470363%" y2="44.1387475%" id="linearGradient-1">
            <stop stop-color="#FFDE62" offset="0%"></stop>
            <stop stop-color="#5E908F" offset="100%"></stop>
        </linearGradient>
        <filter x="-50%" y="-50%" width="200%" height="200%" filterUnits="objectBoundingBox" id="filter-2">
            <feGaussianBlur stdDeviation="5 0" in="SourceGraphic"></feGaussianBlur>
        </filter>
        <path d="M0.366856852,4.19553987 C0.366856852,4.19553987 15.9613036,-0.540452424 18.4472532,0.465514058 C20.2640856,5.13667889 13.2093533,25.8089714 0.366856852,4.19553987 Z" id="path-3"></path>
    </defs>
    <g id="Dashboard" stroke="none" stroke-width="1" fill="none" fill-rule="evenodd">
        <g id="login-page" transform="translate(0.000000, -128.000000)">
            <g id="Left-side" transform="translate(10.000000, 128.000000)">
                <g id="door-bottom" transform="translate(116.000000, 51.000000)">
                    <rect id="Rectangle-15" fill="#FFE66D" x="0" y="0" width="89" height="238"></rect>
                    <rect id="Rectangle-4" fill="#1A888E" x="0" y="0" width="6.19620253" height="238"></rect>
                    <rect id="Rectangle-5" fill="#4ECDC4" x="6.19620253" y="0" width="3.94303797" height="238"></rect>
                </g>
                <g id="character">
                    <g id="floor" transform="translate(105.000000, 289.000000)">
                        <rect id="Rectangle-19" fill="#123D44" x="0" y="0" width="213" height="15" rx="2"></rect>
                        <rect id="Rectangle-20" fill="#14444C" x="5.48969072" y="4" width="204.216495" height="11" rx="2"></rect>
                    </g>
                    <polygon id="Path-12" fill="url(#linearGradient-1)" opacity="0.163383152" filter="url(#filter-2)" points="176.157775 50.9803215 0 0.868243631 0 336.5307 176.157775 275.339256"></polygon>
                    <g id="head" transform="translate(98.000000, 104.000000)">
                        <path d="M43.0377842,13.9867845 C44.3951496,12.1434748 52.5761314,8.24153613 43.449065,0.731408579 C40.1741912,-1.96329301 38.3554062,3.8888291 38.3554062,3.8888291 C38.3554062,3.8888291 23.9683784,-4.42069613 26.6643957,5.70509578 C16.5772037,5.19166221 10.3108953,8.77343703 8.75154928,13.3471087 C7.77308535,2.07646892 3.102223,13.6446901 4.69241313,14.2178963 C-1.8093641,12.8215148 -0.29240271,19.4561721 3.46079303,20.5884289 C3.05232518,25.2429264 5.62948038,37.1871583 13.2101027,38.2255009 C26.0966587,39.9906145 40.7896344,37.5930786 44.3951496,26.1953412 C44.7233761,24.2646468 46.4487001,18.3386368 43.0377842,13.9867845 Z" id="hair" fill="#37474F"></path>
                        <path d="M20.6992282,45.4513284 C22.5592256,48.511773 22.8815091,51.8341416 29.9853752,51.8341416 C37.0892413,51.8341416 44.0581253,49.3634028 45.981932,44.8818563 C47.9057387,40.4003098 42.6008192,19.0316207 41.9521092,18.3484768 C41.3033992,17.6653328 31.7566031,17.654028 30.0859328,15.7860524 C28.4152625,13.9180768 30.749285,18.24357 31.863818,19.1753424 C32.978351,20.1071148 26.3963649,19.9289433 23.3386004,18.0470174 C20.2808359,16.1650915 25.3123448,21.0490481 24.3254726,21.0490481 C23.3386004,21.0490481 18.0914897,18.772318 19.3953589,20.1379855 C20.6992282,21.5036529 21.330922,36.701496 20.2628891,37.216022 C19.1948562,37.730548 12.541292,32.462989 11.8938873,38.1697545 C11.2464827,43.87652 16.9642992,48.1454964 20.6992282,45.4513284 Z" id="face" fill="#FFDCB7"></path>
                        <path d="M31.0911904,30.0909606 C31.9647562,30.0909606 32.1650689,29.1622341 32.1650689,28.1691837 C32.1650689,27.1761332 31.8302966,26.2205789 30.9567308,26.2205789 C30.083165,26.2205789 29.683625,27.4029201 29.683625,28.3959705 C29.683625,29.389021 30.2176246,30.0909606 31.0911904,30.0909606 Z" id="eye" fill="#1C0C00" transform="translate(30.924347, 28.155770) rotate(-9.000000) translate(-30.924347, -28.155770) "></path>
                        <path d="M41.3198425,28.0238557 C42.115316,28.0238557 42.2977217,27.1609323 42.2977217,26.2382423 C42.2977217,25.3155524 41.9928763,24.4277019 41.1974029,24.4277019 C40.4019295,24.4277019 40.0381063,25.5262708 40.0381063,26.4489607 C40.0381063,27.3716506 40.5243691,28.0238557 41.3198425,28.0238557 Z" id="eye-copy" fill="#24110A" transform="translate(41.167914, 26.225779) rotate(-9.000000) translate(-41.167914, -26.225779) "></path>
                        <path d="M26.983625,24.1639257 C28.0539175,23.2076335 29.0228891,22.2007113 32.1015417,22.3179655 C32.1015417,22.3179655 28.1623263,20.0004873 26.983625,24.1639257 Z" id="eyebrow" fill="#614321"></path>
                        <path d="M37.5096154,22.4759615 C38.4547067,21.6124504 39.3103295,20.7032215 42.0288462,20.8090995 C42.0288462,20.8090995 38.5504341,18.7164671 37.5096154,22.4759615 Z" id="eyebrow-copy" fill="#633F1B" transform="translate(39.769231, 21.352163) rotate(17.000000) translate(-39.769231, -21.352163) "></path>
                        <path d="M39.2205231,24.7490771 C39.2205231,24.7490771 38.082192,27.1060504 38.4637738,29.2265664 C40.7819692,27.873072 45.1641564,30.4962153 39.7724872,32.7435623 C43.9049223,28.8932844 38.1530487,29.4465303 37.8125978,30.4962153 C37.1632524,26.8079108 39.2205231,24.7490771 39.2205231,24.7490771 Z" id="nose" fill="#CA9866"></path>
                        <path d="M33.0194744,60.4202781 C33.0194744,60.4202781 31.0138493,54.3648219 29.8907549,51.241855 C31.0138493,50.9571656 33.0194744,50.8428098 34.6021935,50.5199991 C35.5972797,54.581045 38.1223761,59.1920085 38.1223761,59.1920085 L33.0194744,60.4202781 Z" id="neck" fill="#FFDBB7"></path>
                        <g id="mouth" transform="translate(23.500000, 35.062500)">
                            <mask id="mask-4" fill="white">
                                <use xlink:href="#path-3"></use>
                            </mask>
                            <use id="Mask" fill="#763428" xlink:href="#path-3"></use>
                            <path d="M1.4720582,9.32901482 C1.4720582,9.32901482 10.3525934,6.48109119 16.1986381,12.731323 C22.0446827,18.9815547 6.59653948,15.394943 6.59653948,15.394943 L1.4720582,9.32901482 Z" id="Path" fill="#D69486" mask="url(#mask-4)"></path>
                        </g>
                    </g>
                    <g id="shoes" transform="translate(136.865385, 281.110577)">
                        <path d="M10.1943702,6.4604077 C10.2856149,7.44839911 11.1712143,8.2290008 12.1629614,8.20416702 L25.8651618,7.86105796 C26.86114,7.83611823 27.6085132,7.00478843 27.5356068,6.01963899 L27.4901475,5.40536837 C27.4167306,4.41332048 26.5558275,3.54836551 25.5702271,3.43718488 C25.5702271,3.43718488 20.6879863,3.30635092 18.2742711,0.671929627 C14.2051076,1.11656462 9.63945003,0.451769133 9.63945003,0.451769133 L10.1943702,6.4604077 Z" id="Path-10" fill="#271B11"></path>
                        <path d="M1.21256736,0.378400311 C1.21256736,0.378400311 -0.35693825,5.04533925 0.374439532,7.40508631 C6.4840813,10.5471911 16.5660721,9.76234049 16.5660721,9.76234049 C17.3085047,9.72509879 17.9103653,9.08593039 17.9103653,8.34791645 L17.9103653,7.25159557 C17.9103653,6.50767244 17.3519938,5.66769537 16.6814488,5.36097347 C16.6814488,5.36097347 13.4463442,4.14106102 10.5462137,1.34967416 C5.86833113,1.34967416 1.21256736,0.378400311 1.21256736,0.378400311 Z" id="Path-9" fill="#392C19"></path>
                    </g>
                    <g id="pants" transform="translate(135.057692, 209.187500)">
                        <path d="M0.437377503,5.78273444 C3.23301116,23.7470132 3.1952671,52.8145574 2.55793999,73.7609341 C9.77893026,74.6772143 14.017858,72.8555217 14.017858,72.8555217 C14.017858,72.8555217 15.4611949,73.7609341 20.4495132,73.4477537 C26.4871032,45.7638857 27.3268225,18.5553879 27.3268225,0.154776095 C17.3988423,0.861496802 8.97378157,1.5931536 0.437377503,5.78273444 Z" id="Path-6" fill="#1F4E56"></path>
                        <path d="M20.7757676,4.11594411 C19.9139342,5.16091603 17.7275947,7.0481943 17.5459908,13.2738441 C17.032842,30.8653404 14.3662862,67.3846256 14.8269878,66.459656 C16.9216921,58.8800395 16.980605,30.5390582 19.3774531,9.3751658 C19.3774531,7.39228129 20.7757676,4.11594411 20.7757676,4.11594411 Z" id="Path-7" fill="#252A2A"></path>
                    </g>
                    <g id="apparel" transform="translate(98.000000, 157.043269)">
                        <path d="M39.3159802,57.8747729 C39.3159802,57.8747729 49.4509605,56.3496752 57.0391405,54.5563608 C57.2094613,53.3742012 57.5202019,53.0184657 57.5202019,53.0184657 L58.6064155,53.9426662 L64.184575,53.6470846 L59.0010225,51.9405614 L57.0391405,48.6848499 L55.9981416,52.782228 L39.3159802,57.8747729 Z" id="Path-8" fill="#222828"></path>
                        <g id="jas" transform="translate(0.000000, 2.247596)">
                            <path d="M27.4919818,1.28120405 C27.2465393,1.31635321 26.8556993,1.39622073 26.6044931,1.46348175 L18.3043174,3.68587277 C18.0596135,3.75139281 17.7316576,3.95176985 17.561317,4.14731881 C17.561317,4.14731881 2.91648935,20.61432 0.557009048,32.4803916 C-0.834312715,40.6133503 -0.912775773,49.1599172 24.370577,42.2548077 C18.6323991,39.5412769 19.5444624,39.0369636 18.3785389,36.6009089 C-6.77085685,43.5181145 21.1439762,11.6619586 21.1439762,11.6619586 C27.5168938,17.7875564 31.6824622,46.3178075 34.0381554,56.2568854 C42.5941274,54.9581179 55.6060266,52.6237738 56.0299989,51.1262472 C56.4539712,49.6287206 56.7467153,47.6198546 56.7467153,47.6198546 C56.7467153,47.6198546 58.1266745,49.8386189 58.7813303,50.8783677 C62.1093758,51.7706189 66.9740406,51.1262472 66.9740406,51.1262472 C66.9740406,51.1262472 52.8369714,17.8911084 50.0349713,12.1897883 C70.4625008,24.707212 93.6838793,16.9444284 93.6838793,16.9444284 C93.6838793,16.9444284 93.6838793,9.38455807 93.6838793,9.38455807 C69.0070836,18.2168814 44.9019616,0.781298073 44.9019616,0.781298073 C44.695211,0.637397738 44.3254626,0.509860888 44.0797626,0.496633427 L38.0120023,0.169970578 L36.3831012,2.79909691 L31.6824622,0.681096789 L27.4919818,1.28120405 Z" fill="#1F4E56"></path>
                            <ellipse id="Oval" fill="#222828" cx="51.5192308" cy="42.2548077" rx="1.35576923" ry="1.34855769"></ellipse>
                            <ellipse id="Oval-Copy" fill="#222828" cx="48.3557692" cy="33.7139423" rx="1.35576923" ry="1.34855769"></ellipse>
                            <path d="M56.2002118,46.1265709 L48.7952016,28.5778258 C48.7952016,28.5778258 56.746559,42.6745433 56.2002118,46.1265709 Z" id="Path-4" fill="#222828"></path>
                        </g>
                        <polygon id="shirt" fill="#E4E4E5" points="47.8940333 28.0403936 26.8571559 5.68206236 33.8283536 3.13909736 36.175068 4.93157695 36.7840061 2.95515459 40.6917656 3.14435287"></polygon>
                        <path d="M38.8952532,17.2032884 L37.0643395,8.96699418 C37.0643395,8.96699418 35.6103753,7.89055321 34.5976688,6.92683911 C35.6103753,5.64237472 37.8910494,5.18995474 37.8910494,5.18995474 L38.6694301,8.09456195 L43.8199976,14.474877 L47.878585,28.0426879 L38.8952532,17.2032884 Z" id="tie" fill="#052328"></path>
                        <path d="M48.1139229,28.5733839 C41.8909513,25.2964144 35.7647394,24.1184344 31.4383266,22.6106708 C30.6061632,20.0215328 32.0410184,13.9714916 32.0410184,13.9714916 C32.0410184,13.9714916 26.4963679,13.0767911 23.907666,11.7069324 C23.907666,8.81309393 25.5090293,4.38347375 25.8364012,4.20226548 C34.7416406,12.231618 44.4437637,22.9541474 48.1139229,28.5733839 Z M48.1139229,28.5733839 C48.318734,25.1992812 50.7160414,16.6106085 50.7160414,16.6106085 C50.7160414,16.6106085 48.0035852,12.8403457 44.9921159,10.3771719 C45.5069401,8.88673531 46.0262398,7.49221345 46.0262398,6.07701563 C43.9809258,4.46052285 42.0281108,3.69981194 40.2978388,2.79041826 C42.0281108,10.3771719 46.3025828,23.3520244 48.1139229,28.5733839 Z" id="Path-5" fill="#2D646D"></path>
                        <path d="M27.4865087,6.16969022 C27.3683074,6.13884235 27.2658822,6.01052113 27.2581225,5.88912709 L27.0196884,2.15904238 C27.0117555,2.03493951 27.1066204,1.94887168 27.2276356,1.96623914 L33.9486547,2.93080394 C34.0714336,2.94842452 34.1709656,3.06612738 34.1709656,3.18832984 L34.1709656,7.68856138 C34.1709656,7.81316843 34.0734466,7.88873213 33.9569432,7.85832739 L27.4865087,6.16969022 Z" id="collar-1" fill="#FCFCFE"></path>
                        <path d="M39.8729915,6.22334062 C39.8486197,6.34801851 39.7622772,6.38107793 39.6737256,6.290629 L36.1477508,2.689104 C36.0620711,2.60158846 36.0658599,2.44834081 36.1370568,2.36834095 L38.0496148,0.219309604 C38.1293884,0.129672606 38.2757596,0.129979683 38.3551759,0.200910488 L40.4885306,2.10632041 C40.5775137,2.18579586 40.6293596,2.35401622 40.6055198,2.47597273 L39.8729915,6.22334062 Z" id="collar-2" fill="#FFFDFF"></path>
                    </g>
                    <g id="hand" transform="translate(114.721154, 184.913462)">
                        <path d="M1.13175859,10.7721847 C5.6764553,21.8105322 15.3476094,13.687728 21.2983328,11.1469446 C21.8280256,10.5444538 21.0810742,8.11772019 18.7627232,8.30232047 C16.3605409,8.11772019 14.5736972,11.4435972 13.1280085,10.5444538 C11.7566666,9.37898445 14.1560567,4.6776624 13.8863978,2.81098345 C13.8863978,1.5027302 12.5211612,1.45123295 11.9495152,1.92954197 C10.4881843,2.81098345 10.1854503,6.86402573 9.25970427,6.68224195 C8.58137867,6.56649401 8.46158812,3.91106886 8.89296693,1.24860414 C8.89296693,0.344546661 7.24045574,-0.861951082 6.22901378,0.941261554 C4.7822246,3.41077541 5.73563646,8.30232047 4.84875718,8.21041356 C3.03386197,8.21041356 3.72132795,5.35063795 3.72132795,3.42473404 C3.50420714,2.27510929 1.4719178,2.12856273 0.900815253,3.42473404 C-0.0102189206,6.41197057 0.184704248,8.66666469 1.13175859,10.7721847 Z" id="Path-2" fill="#FDDCB5"></path>
                        <path d="M7.22915952,11.0092401 C7.22915952,11.0092401 10.3545048,11.3271357 10.6578827,13.422982 C10.6578827,13.5690994 11.6543567,10.0149278 7.22915952,11.0092401 Z" id="Path-3" fill="#C79D73"></path>
                    </g>
                </g>
                <g id="door-front" transform="translate(176.000000, 40.000000)">
                    <rect id="Rectangle-10" fill="#1A717A" x="0" y="0" width="134.320988" height="249"></rect>
                    <rect id="Rectangle-Copy" fill="#1A888E" x="0" y="0" width="9.51440329" height="248.436652"></rect>
                    <rect id="Rectangle" fill="#4ECDC4" x="0" y="0" width="2.23868313" height="248.436652"></rect>
                    <g id="hinge-2" transform="translate(129.843621, 176.328054)">
                        <rect id="Rectangle-3" fill="#1A535C" x="0.559670782" y="4.50678733" width="5.03703704" height="9.57692308"></rect>
                        <path d="M6.1563786,13.5739178 L6.1563786,16.6185597 C6.1563786,18.3298885 4.77476707,19.7171946 3.0781893,19.7171946 L3.0781893,19.7171946 C1.37815229,19.7171946 0,18.3257407 0,16.6152475 L0,13.5851588" id="Rectangle-3-Copy-2" fill="#1A888E"></path>
                        <path d="M0,5.66313977 L0,3.09668391 L0,3.09668391 C0,1.38643261 1.38161153,0 3.0781893,0 L3.0781893,0 C4.77822631,0 6.1563786,1.39231926 6.1563786,3.09639714 L6.1563786,5.63256292" id="Rectangle-3-Copy" fill="#1A888E"></path>
                        <rect id="Rectangle-14" fill="#1A888E" x="0" y="7.32352941" width="6.1563786" height="4.50678733"></rect>
                    </g>
                    <g id="hinge-1" transform="translate(129.843621, 56.898190)">
                        <rect id="Rectangle-3" fill="#1A535C" x="0.559670782" y="4.50678733" width="5.03703704" height="9.57692308"></rect>
                        <path d="M6.1563786,13.5739178 L6.1563786,16.6185597 C6.1563786,18.3298885 4.77476707,19.7171946 3.0781893,19.7171946 L3.0781893,19.7171946 C1.37815229,19.7171946 0,18.3257407 0,16.6152475 L0,13.5851588" id="Rectangle-3-Copy-2" fill="#1A888E"></path>
                        <path d="M0,5.66313977 L0,3.09668391 L0,3.09668391 C0,1.38643261 1.38161153,0 3.0781893,0 L3.0781893,0 C4.77822631,0 6.1563786,1.39231926 6.1563786,3.09639714 L6.1563786,5.63256292" id="Rectangle-3-Copy" fill="#1A888E"></path>
                        <rect id="Rectangle-14" fill="#1A888E" x="0" y="7.32352941" width="6.1563786" height="4.50678733"></rect>
                    </g>
                    <g id="window" transform="translate(28.543210, 30.420814)">
                        <g id="window-1" transform="translate(0.559671, 0.000000)">
                            <rect id="Rectangle-11" fill="#1A888E" x="0" y="0" width="34.6995885" height="69.8552036"></rect>
                            <rect id="Rectangle-2" fill="#1A535C" x="30.781893" y="0" width="3.91769547" height="69.8552036"></rect>
                        </g>
                        <g id="window-2" transform="translate(50.370370, 0.000000)">
                            <rect id="Rectangle-11" fill="#1A888E" x="0" y="0" width="34.6995885" height="69.8552036"></rect>
                            <rect id="Rectangle-2" fill="#1A535C" x="30.781893" y="0" width="3.91769547" height="69.8552036"></rect>
                        </g>
                        <g id="window-3" transform="translate(50.370370, 122.246606)">
                            <rect id="Rectangle-11" fill="#1A888E" x="0" y="0" width="34.6995885" height="69.8552036"></rect>
                            <rect id="Rectangle-2" fill="#1A535C" x="30.781893" y="0" width="3.91769547" height="69.8552036"></rect>
                        </g>
                        <g id="window-4" transform="translate(0.000000, 122.246606)">
                            <rect id="Rectangle-11" fill="#1A888E" x="0" y="0" width="34.6995885" height="69.8552036"></rect>
                            <rect id="Rectangle-2" fill="#1A535C" x="30.781893" y="0" width="3.91769547" height="69.8552036"></rect>
                        </g>
                    </g>
                    <g id="handle" transform="translate(16.790123, 125.626697)">
                        <rect id="Rectangle-13" fill="#1A535C" x="0" y="4.64762443" width="5.03703704" height="3.614819" rx="1.8074095"></rect>
                        <ellipse id="Oval-2" fill="#1A888E" cx="9.06666667" cy="6.19683258" rx="6.04444444" ry="6.19683258"></ellipse>
                        <ellipse id="Oval-3" fill="#21AAAA" cx="11.0814815" cy="5.68042986" rx="2.01481481" ry="2.06561086"></ellipse>
                    </g>
                </g>
            </g>
        </g>
    </g>
</svg>