<?xml version="1.0" encoding="UTF-8"?>
<svg xmlns="http://www.w3.org/2000/svg" xmlns:xlink="http://www.w3.org/1999/xlink" width="16pt" height="16pt" viewBox="0 0 16 16" version="1.1">
<g id="surface1">
<path style=" stroke:none;fill-rule:nonzero;fill:#ffffff;fill-opacity:1;" d="M 15.285156 1.039062 C 14.5625 0.652344 13.757812 1.402344 13.289062 1.84375 C 12.207031 2.898438 11.289062 4.121094 10.265625 5.230469 C 9.125 6.449219 8.074219 7.671875 6.90625 8.863281 C 6.242188 9.527344 5.519531 10.25 5.078125 11.082031 C 4.078125 10.109375 3.21875 9.058594 2.109375 8.195312 C 1.304688 7.585938 -0.0273438 7.144531 0 8.613281 C 0.0546875 10.527344 1.746094 12.578125 2.996094 13.882812 C 3.523438 14.4375 4.21875 15.019531 5.019531 15.046875 C 5.992188 15.105469 6.992188 13.9375 7.574219 13.300781 C 8.601562 12.191406 9.433594 10.941406 10.375 9.804688 C 11.59375 8.308594 12.84375 6.835938 14.035156 5.3125 C 14.785156 4.367188 17.144531 2.039062 15.285156 1.039062 Z M 1.222656 8.503906 C 1.191406 8.503906 1.164062 8.503906 1.109375 8.53125 C 1 8.503906 0.914062 8.472656 0.804688 8.417969 C 0.886719 8.363281 1.027344 8.390625 1.222656 8.503906 Z M 1.222656 8.503906 "/>
</g>
</svg>
