<?xml version="1.0" encoding="UTF-8"?>
<svg width="265px" height="66px" viewBox="0 0 265 66" version="1.1" xmlns="http://www.w3.org/2000/svg" xmlns:xlink="http://www.w3.org/1999/xlink">
    <!-- Generator: Sketch 62 (91390) - https://sketch.com -->
    <title>logo-quote</title>
    <desc>Created with Sketch.</desc>
    <g id="logo-quote" stroke="none" stroke-width="1" fill="none" fill-rule="evenodd">
        <g id="Login-Logo" fill="#FFFFFF">
            <g id="Login-Logo-Blue---Final">
                <path d="M52.7328042,61.8624049 C51.0480041,62.0784049 49.708804,62.1792049 48.7152039,62.1792049 C40.8384032,62.1792049 34.8912028,58.5504047 30.8592025,51.3072041 C37.411203,50.385604 42.6240034,47.6208038 46.5120037,43.0128034 C50.400004,38.4048031 52.3440042,32.7600026 52.3440042,26.0928021 C52.3440042,18.5616015 49.910404,12.340801 45.0576036,7.43040059 C40.2048032,2.5200002 33.9264027,0.0576000046 26.2368021,0.0576000046 C18.4896015,0.0576000046 12.182401,2.5200002 7.31520058,7.44480059 C2.44800019,12.369601 0.0144000011,18.5904015 0.0144000011,26.0928021 C0.0144000011,32.7456026 1.95840016,38.376003 5.84640046,42.9696034 C9.73440077,47.5632038 14.9616012,50.342404 21.4992017,51.3216041 C23.1552018,55.4400044 26.0064021,58.7520047 30.0384024,61.2720049 C34.0704027,63.7776051 38.5200031,65.0304052 43.3728034,65.0304052 C45.5328036,65.0304052 47.7216038,64.8432052 49.953604,64.4544051 C51.7536041,64.1232051 52.7616042,63.8784051 52.9632042,63.7056051 C53.1648042,63.5472051 53.2656042,63.273605 53.2656042,62.884805 C53.2656042,62.2080049 53.0784042,61.8624049 52.7328042,61.8624049 Z M25.689602,49.4928039 C20.3904016,49.3632039 16.1136013,47.2032038 12.873601,43.0128034 C9.60480076,38.7648031 7.93440063,33.2640026 7.86240062,26.4960021 L25.689602,26.4960021 L25.689602,49.4928039 L25.689602,49.4928039 Z M25.689602,25.689602 L7.86240062,25.689602 C7.92000063,18.8928015 9.59040076,13.3200011 12.888001,8.97120071 C16.1424013,4.68000037 20.4048016,2.4768002 25.689602,2.34720019 L25.689602,25.689602 L25.689602,25.689602 Z M26.4960021,2.33280019 C31.8528025,2.40480019 36.1872029,4.62240037 39.4848031,8.95680071 C42.7824034,13.2912011 44.4528035,18.8784015 44.5104035,25.675202 L26.4960021,25.675202 L26.4960021,2.33280019 Z M26.4960021,49.4928039 L26.4960021,26.4960021 L44.5104035,26.4960021 C44.4384035,33.2640026 42.7824034,38.7648031 39.4992031,43.0128034 C36.2304029,47.2608038 31.8816025,49.4208039 26.4960021,49.4928039 Z" id="Shape" fill-rule="nonzero"></path>
                <path d="M97.1568077,46.2816037 C100.209608,42.6960034 101.736008,37.728003 101.736008,31.4064025 L101.736008,26.4960021 L109.800009,26.4960021 L109.800009,25.689602 L101.736008,25.689602 L101.736008,9.12960073 C101.736008,6.92640055 102.240008,5.45760043 103.262408,4.73760038 C104.284808,4.01760032 106.286408,3.47040028 109.267209,3.08160024 C109.641609,3.08160024 109.843209,2.75040022 109.843209,2.10240017 C109.843209,1.45440012 109.656009,1.12320009 109.267209,1.12320009 C108.086409,1.12320009 106.617608,1.19520009 104.860808,1.33920011 C103.161608,1.48320012 101.736008,1.55520012 100.598408,1.55520012 C99.4608079,1.55520012 97.9920078,1.48320012 96.1776076,1.33920011 C94.4064075,1.19520009 92.9808074,1.12320009 91.9008073,1.12320009 C91.5264073,1.12320009 91.3392073,1.45440012 91.3392073,2.10240017 C91.3392073,2.75040022 91.5264073,3.08160024 91.9008073,3.08160024 C94.8096075,3.41280027 96.7968077,3.96000031 97.8480078,4.69440037 C98.8992079,5.44320043 99.4320079,6.91200055 99.4320079,9.11520072 L99.4320079,25.675202 L85.8960068,25.675202 L85.8960068,1.82880015 L85.0896068,1.82880015 L85.0896068,25.675202 L71.3376057,25.675202 L71.3376057,9.11520072 C71.3376057,7.45920059 71.5392057,6.2928005 71.9568057,5.61600045 C72.3744058,4.93920039 73.0944058,4.40640035 74.1456059,4.01760032 C75.182406,3.62880029 76.7088061,3.31200026 78.7248063,3.08160024 C79.0992063,3.08160024 79.2864063,2.75040022 79.2864063,2.10240017 C79.2864063,1.45440012 79.0992063,1.12320009 78.7248063,1.12320009 C77.1408061,1.12320009 75.240006,1.19520009 73.0368058,1.33920011 C70.9344056,1.48320012 69.1488055,1.55520012 67.7088054,1.55520012 C66.2688053,1.55520012 64.4976051,1.48320012 62.409605,1.33920011 C60.2352048,1.19520009 58.3488046,1.12320009 56.7648045,1.12320009 C56.3904045,1.12320009 56.2032045,1.45440012 56.2032045,2.10240017 C56.2032045,2.75040022 56.3904045,3.08160024 56.7648045,3.08160024 C58.7808047,3.31200026 60.3072048,3.64320029 61.3440049,4.04640032 C62.380805,4.44960035 63.100805,4.9824004 63.489605,5.65920045 C63.8784051,6.3360005 64.0800051,7.4880006 64.0800051,9.12960073 L64.0800051,25.689602 L61.1856049,25.689602 L61.1856049,26.4960021 L64.0800051,26.4960021 L64.0800051,32.5440026 C64.0800051,38.4480031 65.8512052,43.1136034 69.4080055,46.5264037 C72.9504058,49.953604 77.9040062,51.6672041 84.2400067,51.6672041 C89.7984071,51.6672041 94.1040075,49.881604 97.1568077,46.2816037 Z M85.0896068,48.4704039 C80.2800064,48.4128038 76.7952061,47.0592037 74.6352059,44.3808035 C72.4320058,41.6592033 71.3376057,37.382403 71.3376057,31.5504025 L71.3376057,26.4960021 L85.0896068,26.4960021 L85.0896068,48.4704039 L85.0896068,48.4704039 Z M85.8960068,48.4704039 L85.8960068,26.4960021 L99.4320079,26.4960021 L99.4320079,30.7008024 C99.4176079,42.3360034 94.9104075,48.2544038 85.8960068,48.4704039 Z" id="Shape" fill-rule="nonzero"></path>
                <path d="M140.140811,51.6672041 C147.931212,51.6672041 154.238412,49.2768039 159.076813,44.5104035 C163.900813,39.7440032 166.320013,33.5952027 166.320013,26.0928021 C166.320013,18.5616015 163.886413,12.340801 159.033613,7.43040059 C154.180812,2.5200002 147.873612,0.0576000046 140.140811,0.0576000046 C132.422411,0.0576000046 126.12961,2.5200002 121.27681,7.43040059 C116.424009,12.340801 113.990409,18.5616015 113.990409,26.0928021 C113.990409,33.5952027 116.395209,39.7440032 121.21921,44.5104035 C126.04321,49.2912039 132.350411,51.6672041 140.140811,51.6672041 Z M141.465611,2.37600019 C146.347212,2.70720022 150.350412,4.91040039 153.446412,8.97120071 C156.758412,13.3056011 158.443213,18.8784015 158.500813,25.689602 L141.465611,25.689602 L141.465611,2.37600019 L141.465611,2.37600019 Z M141.465611,26.4960021 L158.500813,26.4960021 C158.443213,33.2496026 156.772812,38.7360031 153.475212,42.9552034 C150.393612,46.9008037 146.390412,49.0320039 141.465611,49.3488039 L141.465611,26.4960021 L141.465611,26.4960021 Z M126.83521,8.97120071 C130.19041,4.53600036 134.625611,2.33280019 140.140811,2.33280019 C140.313611,2.33280019 140.486411,2.34720019 140.659211,2.34720019 L140.659211,25.689602 L121.82401,25.689602 C121.88161,18.8928015 123.55201,13.3200011 126.83521,8.97120071 Z M140.659211,26.4960021 L140.659211,49.3920039 C140.486411,49.3920039 140.313611,49.4064039 140.140811,49.4064039 C134.582411,49.4064039 130.13281,47.2608038 126.80641,42.9552034 C123.53761,38.7360031 121.88161,33.2496026 121.82401,26.4960021 L140.659211,26.4960021 L140.659211,26.4960021 Z" id="Shape" fill-rule="nonzero"></path>
                <path d="M218.116817,13.4784011 C218.966417,13.4784011 219.398417,13.2480011 219.398417,12.801601 C218.304017,7.70400061 217.598417,3.62880029 217.267217,0.547200043 C214.041617,1.2096001 206.524816,1.54080012 194.688015,1.54080012 C183.168015,1.54080012 175.795214,1.2096001 172.569614,0.547200043 C171.388814,5.0688004 170.136014,9.11520072 168.811213,12.700801 C168.811213,13.2192011 169.214413,13.4784011 170.020814,13.4784011 C170.424014,13.4784011 170.683214,13.3056011 170.798414,12.945601 C171.633614,10.2384008 173.404814,8.04960064 176.126414,6.3504005 C178.848014,4.65120037 181.886414,3.8160003 185.212815,3.8160003 L187.977615,3.8160003 C189.158415,3.8160003 189.964815,4.00320032 190.396815,4.37760035 C190.828815,4.75200038 191.030415,5.47200043 191.030415,6.50880052 L191.030415,25.675202 L183.139215,25.675202 L183.139215,26.4816021 L191.030415,26.4816021 L191.030415,42.5664034 C191.030415,44.7696036 190.512015,46.2384037 189.489615,46.9728037 C188.452815,47.7072038 186.508815,48.2400038 183.643215,48.5712039 C183.268815,48.6144039 183.081615,48.9312039 183.081615,49.5360039 C183.081615,50.198404 183.268815,50.529604 183.643215,50.529604 C185.227215,50.529604 187.128015,50.457604 189.331215,50.313604 C191.318415,50.184004 193.017615,50.112004 194.428815,50.097604 L194.428815,50.342404 L195.235216,50.342404 L195.235216,50.112004 C196.531216,50.126404 198.100816,50.198404 199.915216,50.328004 C202.118416,50.472004 204.019216,50.544004 205.603216,50.544004 C205.977616,50.544004 206.164816,50.212804 206.164816,49.5504039 C206.164816,48.9600039 205.977616,48.6432039 205.603216,48.5856039 C203.644816,48.3552038 202.132816,48.0384038 201.067216,47.6496038 C200.016016,47.2608038 199.281616,46.7280037 198.864016,46.0512037 C198.446416,45.3744036 198.244816,44.2224035 198.244816,42.5808034 L198.244816,26.4960021 L206.856016,26.4960021 L206.856016,25.689602 L198.244816,25.689602 L198.244816,6.52320052 C198.244816,5.48640044 198.460816,4.76640038 198.878416,4.39200035 C199.310416,4.01760032 200.102416,3.8304003 201.254416,3.8304003 L204.595216,3.8304003 C208.310417,3.8304003 211.118417,4.52160036 213.019217,5.90400047 C214.920017,7.28640058 216.374417,9.64800077 217.382417,12.988801 C217.497617,13.3200011 217.728017,13.4784011 218.116817,13.4784011 Z" id="Path" fill-rule="nonzero"></path>
                <path d="M228.715218,46.0512037 C228.297618,46.7136037 227.577618,47.2464038 226.526418,47.6352038 C225.489618,48.0240038 223.977618,48.3408038 222.019218,48.5712039 C221.644818,48.6144039 221.457618,48.9312039 221.457618,49.5360039 C221.457618,50.198404 221.644818,50.529604 222.019218,50.529604 C225.964818,50.400004 229.392018,50.313604 232.329618,50.241604 L232.329618,50.342404 L233.136019,50.342404 L233.136019,50.212804 C236.476819,50.140804 239.112019,50.097604 241.056019,50.097604 C244.843219,50.097604 251.20802,50.241604 260.136021,50.529604 C261.345621,46.8144037 262.900821,42.8976034 264.830421,38.8080031 C264.830421,38.5488031 264.700821,38.332803 264.441621,38.145603 C264.182421,37.972803 263.880021,37.872003 263.548821,37.872003 C263.246421,37.872003 263.044821,37.972803 262.944021,38.188803 C261.648021,40.9392033 259.603221,43.2288034 256.83842,45.0576036 C254.07362,46.8864037 251.28002,47.8080038 248.457618,47.8080038 L240.710419,47.8080038 C237.960019,47.8080038 236.592019,46.4112037 236.592019,43.6176035 L236.592019,26.4960021 L248.06882,26.4960021 C249.01922,26.7840021 249.76802,27.2448022 250.27202,27.9072022 C251.16482,29.0736023 251.78402,31.0896025 252.14402,33.9840027 C252.14402,34.3584027 252.47522,34.5456027 253.12322,34.5456027 C253.77122,34.5456027 254.10242,34.3584027 254.10242,33.9840027 C254.10242,32.8032026 254.03042,31.2768025 253.88642,29.4336023 C253.80002,28.3248023 253.72802,27.3456022 253.69922,26.4960021 L261.244821,26.4960021 L261.244821,25.689602 L253.68482,25.689602 C253.68482,25.516802 253.68482,25.344002 253.68482,25.171202 C253.68482,24.0768019 253.75682,22.6800018 253.90082,20.9376017 C254.04482,19.1376015 254.11682,17.6400014 254.11682,16.4592013 C254.11682,16.0848013 253.78562,15.8976013 253.13762,15.8976013 C252.48962,15.8976013 252.15842,16.0848013 252.15842,16.4592013 C251.82722,19.2240015 251.23682,21.1536017 250.38722,22.2480018 C249.53762,23.3424019 247.92482,23.8752019 245.54882,23.8752019 L236.592019,23.8752019 L236.592019,8.07840064 C236.592019,5.24160042 237.960019,3.8160003 240.710419,3.8160003 L247.88162,3.8160003 C253.61282,3.8160003 257.35682,6.60960053 259.113621,12.196801 C259.214421,12.528001 259.459221,12.686401 259.862421,12.686401 C260.697621,12.686401 261.100821,12.456001 261.100821,11.980801 C260.064021,8.40960067 259.272021,4.78080038 258.724821,1.10880009 C252.77762,1.39680011 246.65762,1.54080012 240.364819,1.54080012 C234.115219,1.54080012 228.009618,1.39680011 222.033618,1.10880009 C221.659218,1.10880009 221.472018,1.44000011 221.472018,2.08800017 C221.472018,2.73600022 221.659218,3.06720024 222.033618,3.06720024 C224.049618,3.29760026 225.576018,3.62880029 226.612818,4.03200032 C227.649618,4.43520035 228.369618,4.96800039 228.758418,5.64480045 C229.147218,6.3216005 229.348818,7.47360059 229.348818,9.11520072 L229.348818,25.675202 L221.616018,25.675202 L221.616018,26.4816021 L229.348818,26.4816021 L229.348818,42.5664034 C229.334418,44.2368035 229.132818,45.3888036 228.715218,46.0512037 Z" id="Path" fill-rule="nonzero"></path>
            </g>
        </g>
    </g>
</svg>
