<?xml version="1.0" encoding="UTF-8"?>
<svg width="18px" height="92px" viewBox="0 0 18 92" version="1.1" xmlns="http://www.w3.org/2000/svg" xmlns:xlink="http://www.w3.org/1999/xlink">
    <!-- Generator: Sketch 62 (91390) - https://sketch.com -->
    <title>icon-arrow-down</title>
    <desc>Created with Sketch.</desc>
    <g id="icon-arrow-down" stroke="none" stroke-width="1" fill="none" fill-rule="evenodd">
        <g id="noun_Arrow_1920786" transform="translate(9.000000, 80.500000) scale(1, -1) rotate(-90.000000) translate(-9.000000, -80.500000) translate(-2.000000, 72.000000)" fill="#FFFFFF" fill-rule="nonzero">
            <path d="M20.6976018,6.8544006 L14.6944013,0.851200074 C13.7760012,-0.0672000059 12.2752011,-0.0672000059 11.356801,0.851200074 C10.4384009,1.76960015 10.4384009,3.27040029 11.356801,4.18880037 L13.3280012,6.16000054 L2.46400022,6.16000054 C1.1648001,6.16000054 0.11200001,7.21280063 0.11200001,8.51200074 C0.11200001,9.81120086 1.1648001,10.8640009 2.46400022,10.8640009 L13.3504012,10.8640009 L11.356801,12.8576011 C10.4384009,13.7760012 10.4384009,15.2768013 11.356801,16.1952014 C11.827201,16.6656015 12.4096011,16.8896015 13.0144011,16.8896015 C13.6192012,16.8896015 14.2240012,16.6656015 14.6720013,16.1952014 L20.6752018,10.1920009 C21.1232018,9.74400085 21.3696019,9.1616008 21.3696019,8.53440074 C21.3920019,7.88480069 21.1456018,7.28000064 20.6976018,6.8544006 Z" id="Path"></path>
        </g>
        <line x1="8.5" y1="1" x2="8.5" y2="63" id="Line-6" stroke="#FFFFFF" opacity="0.520577567" stroke-linecap="square" transform="translate(8.500000, 32.000000) rotate(-180.000000) translate(-8.500000, -32.000000) "></line>
    </g>
</svg>