<?xml version="1.0" encoding="UTF-8"?>
<svg width="89px" height="89px" viewBox="0 0 89 89" version="1.1" xmlns="http://www.w3.org/2000/svg" xmlns:xlink="http://www.w3.org/1999/xlink">
    <!-- Generator: Sketch 62 (91390) - https://sketch.com -->
    <title>icon-sun-plug</title>
    <desc>Created with Sketch.</desc>
    <g id="icon-sun-plug" stroke="none" stroke-width="1" fill="none" fill-rule="evenodd">
        <g id="noun_solar_2949710-copy" transform="translate(3.000000, 4.000000)" fill="#FFFFFF">
            <path d="M46.0130383,16.6030043 C49.904683,16.6030043 53.0596684,19.7579897 53.0596684,23.6496344 C53.0596684,27.5412791 49.904683,30.6962645 46.0130383,30.6962645 C42.1224565,30.6962645 38.9664082,27.5412791 38.9664082,23.6496344 C38.9664082,19.7579897 42.1224565,16.6030043 46.0130383,16.6030043 L46.0130383,16.6030043 Z M47.605413,43.9284943 L47.605413,51.4120176 C47.605413,55.9212656 43.8870373,59.6194442 39.3809783,59.6194442 L7.85238446,59.6194442 C1.64127272,59.6194442 1.64339872,69.0121164 7.85238446,69.0121164 L64.2286143,69.0121164 L64.2286143,67.7715948 L66.8744224,64.6580665 L75.5538213,64.6580665 L75.5538213,76.5487897 L66.8744224,76.5487897 L64.2286143,73.4352613 L64.2286143,72.1958028 L7.85238446,72.1958028 C-2.56714613,72.1958028 -2.56820913,56.4357578 7.85238446,56.4357578 L39.3809783,56.4357578 C42.1458426,56.4357578 44.4217266,54.1811338 44.4217266,51.4120176 L44.4217266,43.9284943 L42.0841885,39.0652672 L38.1808508,42.5604127 L37.8917147,37.3272614 L29.3324349,40.3313008 L32.3354112,31.772021 L27.1033229,31.4818219 L30.5984685,27.5784841 L22.4229319,23.6496344 L30.5974055,19.7207847 L27.1033229,15.817447 L32.3354112,15.5272478 L29.3324349,6.96796807 L37.8917147,9.97200739 L38.1808508,4.73885609 L42.0841885,8.23506462 L46.0130383,0.0595280262 L49.941888,8.23400162 L53.8462887,4.73885609 L54.1354248,9.97200739 L62.6947046,6.96796807 L59.6906653,15.5272478 L64.9238166,15.817447 L61.428671,19.7207847 L69.6042076,23.6496344 L61.429734,27.5784841 L64.9238166,31.4818219 L59.6906653,31.772021 L62.6947046,40.3313008 L54.1354248,37.3272614 L53.8462887,42.5604127 L49.941888,39.0652672 L47.605413,43.9284943 L47.605413,43.9284943 Z M76.8017838,72.9781711 L82.5228523,72.9781711 L82.5228523,75.3667332 L76.8017838,75.3667332 L76.8017838,72.9781711 Z M76.8017838,65.841186 L82.5228523,65.841186 L82.5228523,68.229748 L76.8017838,68.229748 L76.8017838,65.841186 Z M46.0130383,13.684005 C51.5172547,13.684005 55.9786676,18.146481 55.9786676,23.6496344 C55.9786676,29.1538508 51.5172547,33.6152638 46.0130383,33.6152638 C40.5098848,33.6152638 36.0474089,29.1538508 36.0474089,23.6496344 C36.0474089,18.146481 40.5098848,13.684005 46.0130383,13.684005 Z" id="Shape"></path>
        </g>
    </g>
</svg>