<?xml version="1.0" encoding="UTF-8"?>
<svg width="89px" height="89px" viewBox="0 0 89 89" version="1.1" xmlns="http://www.w3.org/2000/svg" xmlns:xlink="http://www.w3.org/1999/xlink">
    <!-- Generator: Sketch 62 (91390) - https://sketch.com -->
    <title>icon-solar-panels</title>
    <desc>Created with Sketch.</desc>
    <g id="icon-solar-panels" stroke="none" stroke-width="1" fill="none" fill-rule="evenodd">
        <g id="Group-Copy-2" transform="translate(3.000000, 11.000000)" fill="#FFFFFF" fill-rule="nonzero">
            <g id="noun_solar_2935323">
                <path d="M77.0863737,28.1894145 L82.77632,50.1267327 L22.5701577,50.1267327 L28.2601041,28.1894145 C44.5355273,28.1894145 60.8109505,28.1894145 77.0863737,28.1894145 Z M28.2601041,19.7796043 C32.4184438,19.7796043 35.8721324,22.7990572 36.5498543,26.7644033 L27.1638553,26.7644033 L24.8041714,35.8586677 C21.8834594,34.5402519 19.8502938,31.601587 19.8502938,28.1894145 C19.8502938,23.5452245 23.615914,19.7796043 28.2601041,19.7796043 L28.2601041,19.7796043 Z M23.5710318,9.79218328 L28.2601041,0.034783738 L32.9491764,9.79106122 L37.6079531,5.62037883 L37.9535464,11.8657429 L48.1687448,8.28077376 L44.5837757,18.4959722 L50.8291397,18.8415654 L46.6573353,23.5003422 L53.4491407,26.7644033 L40.0686221,26.7644033 C39.3639709,20.8679987 34.3461362,16.2956202 28.2601041,16.2956202 C21.6915879,16.2956202 16.3663098,21.6208983 16.3663098,28.1894145 C16.3663098,33.2263242 19.4979682,37.5327754 23.9199912,39.266352 L21.5524529,48.3942781 L18.912255,50.7584502 L18.5666617,44.5130862 L8.35146329,48.0980553 L11.9364324,37.8828569 L5.69106836,37.5372636 L9.86287281,32.8784868 L0.10547327,28.1894145 L9.86175076,23.5003422 L5.69106836,18.8415654 L11.9364324,18.4959722 L8.35146329,8.28077376 L18.5666617,11.8657429 L18.912255,5.62037883 L23.5710318,9.79218328 Z M37.1322014,63.0303774 L68.2131544,63.0303774 L68.2131544,67.3637579 L37.1322014,67.3637579 L37.1322014,63.0303774 Z M31.6891074,57.278718 L73.6562483,57.278718 L73.6562483,61.6120985 L31.6891074,61.6120985 L31.6891074,57.278718 Z M25.4583301,51.5270586 L79.8870257,51.5270586 L79.8870257,55.8604391 L25.4583301,55.8604391 L25.4583301,51.5270586 Z M62.2505484,31.8147777 L62.9439791,38.0713623 L74.8119661,38.0713623 L73.189473,31.8147777 L62.2505484,31.8147777 L62.2505484,31.8147777 Z M63.1840991,40.2459069 L63.8775297,46.5013695 L76.9988534,46.5013695 L75.3763603,40.2459069 L63.1840991,40.2459069 L63.1840991,40.2459069 Z M61.0185309,46.5013695 L60.3262223,40.2459069 L45.0191334,40.2459069 L44.3268249,46.5013695 L61.0185309,46.5013695 L61.0185309,46.5013695 Z M60.0849802,38.0713623 L59.3915496,31.8147777 L45.9538061,31.8147777 L45.2603755,38.0713623 L60.0849802,38.0713623 Z M41.467826,46.5013695 L42.1612566,40.2459069 L29.9689954,40.2459069 L28.3465024,46.5013695 L41.467826,46.5013695 Z M42.4013766,38.0713623 L43.0948073,31.8147777 L32.1558827,31.8147777 L30.5333896,38.0713623 L42.4013766,38.0713623 Z" id="Shape"></path>
            </g>
        </g>
    </g>
</svg>