<?xml version="1.0" encoding="UTF-8"?>
<svg width="89px" height="89px" viewBox="0 0 89 89" version="1.1" xmlns="http://www.w3.org/2000/svg" xmlns:xlink="http://www.w3.org/1999/xlink">
    <!-- Generator: Sketch 62 (91390) - https://sketch.com -->
    <title>icon-sun</title>
    <desc>Created with Sketch.</desc>
    <g id="icon-sun" stroke="none" stroke-width="1" fill="none" fill-rule="evenodd">
        <g id="noun_sun_2979102-copy" transform="translate(-1.000000, -1.000000)" fill="#FFFFFF" fill-rule="nonzero">
            <path d="M45.2085664,25.3011062 C56.2032821,25.3011062 65.1162527,34.2140932 65.1162527,45.2088089 C65.1162527,56.2035245 56.203269,65.1164984 45.2085533,65.1164984 C34.2138377,65.1164984 25.3008605,56.203518 25.3008605,45.2088023 C25.3008605,39.9289505 27.3982704,34.8653471 31.1316903,31.1319291 C34.8651102,27.398511 39.9287147,25.3011062 45.2085664,25.3011062 Z M38.7513146,21.178486 C40.8563139,20.6084863 43.0277602,20.3209182 45.2085664,20.3233419 C46.8223016,20.3202224 48.4323153,20.4782544 50.0146454,20.7950859 C46.0734305,16.0383337 56.2261973,9.75783841 46.1323985,1.07945844 C46.0069201,0.970927942 45.827476,0.95110462 45.6813335,1.02962895 C45.535191,1.10815327 45.4526781,1.2687296 45.4739225,1.43326645 C47.518176,14.9275337 36.6185402,12.3133151 38.7513146,21.178486 Z M77.0622266,14.6523203 C77.0506567,14.488275 76.9381559,14.3487868 76.7802813,14.30274 C76.6224067,14.2566932 76.4525571,14.3138293 76.3546106,14.4459322 C68.2560433,25.4341085 62.3884617,15.8711299 57.631562,23.6552405 C60.9315002,25.5539049 63.7497634,28.1871529 65.8677901,31.3507712 C66.4377945,25.1884478 78.0647908,27.9402782 77.0622266,14.6523203 Z M88.9840728,45.4741583 C75.4897072,47.5183824 78.1041028,36.618835 69.2389319,38.7515013 C69.8088586,40.8565296 70.0963896,43.0279872 70.0939679,45.2088023 C70.0971407,46.8225432 69.9391082,48.4325656 69.6222239,50.0148911 C74.3791235,46.0737352 80.6594714,56.2263742 89.3379103,46.1326344 C89.4464241,46.0071462 89.4662334,45.8277063 89.3877057,45.6815696 C89.309178,45.535433 89.1486071,45.4529218 88.9840728,45.4741583 Z M51.6657986,69.2391186 C49.5608011,69.80911 47.389359,70.096678 45.2085566,70.0942627 C43.5948182,70.0973822 41.9848012,69.9393502 40.4024678,69.6225187 C44.3436238,74.379271 34.1909258,80.6597662 44.2846558,89.3381462 C44.4101489,89.4466189 44.5895598,89.4664093 44.7356788,89.3878976 C44.8817978,89.3093859 44.9643198,89.1488554 44.9431318,88.9843382 C42.898888,75.4900709 53.7985239,78.1042895 51.6657986,69.2391186 Z M66.7621381,57.6318864 C64.8634159,60.9318003 62.2301344,63.7500396 59.0664992,65.8680554 C65.2289111,66.4380795 62.4769628,78.0649382 75.7649797,77.0624625 C75.9290249,77.0508926 76.0685132,76.9383918 76.11456,76.7805171 C76.1606067,76.6226425 76.1034707,76.4527929 75.9713677,76.3548465 C64.9832111,68.2562596 74.5461995,62.388786 66.7621381,57.6318864 Z M23.654926,32.7857183 C25.5536482,29.4858043 28.1869297,26.667565 31.3505649,24.5495492 C25.188153,23.9795252 27.9401013,12.3526664 14.6521433,13.3551421 C14.4880854,13.3666906 14.3485775,13.4791917 14.3025276,13.6370771 C14.2564776,13.7949625 14.3136301,13.9648229 14.4457553,14.0627582 C25.4338825,22.1613451 15.8708645,28.0288186 23.654926,32.7857183 Z M1.43305024,44.9434463 C14.9273568,42.8992222 12.3130104,53.7987893 21.1781912,51.666123 C20.6082144,49.5610968 20.320663,47.3896285 20.3230962,45.2088023 C20.3198941,43.59506 20.4779269,41.9850347 20.7948402,40.4027135 C16.0379799,44.3438695 9.75764185,34.1912305 1.07911446,44.2849703 C0.970590679,44.4104743 0.950790839,44.5899378 1.02934426,44.7360817 C1.10789769,44.8822256 1.26850212,44.9647204 1.43305024,44.9434463 Z M13.3548375,75.7652844 C13.3664074,75.9293296 13.4789082,76.0688179 13.6367828,76.1148646 C13.7946574,76.1609114 13.964507,76.1037753 14.0624535,75.9716724 C22.1610207,64.9834961 28.0286024,74.5464747 32.7855021,66.7623642 C29.485572,64.8637105 26.6673259,62.2304595 24.549333,59.0668334 C23.9793384,65.2291568 12.3523028,62.4773265 13.3548375,75.7652844 Z" id="Shape"></path>
        </g>
    </g>
</svg>