<?xml version="1.0" encoding="UTF-8"?>
<svg width="89px" height="89px" viewBox="0 0 89 89" version="1.1" xmlns="http://www.w3.org/2000/svg" xmlns:xlink="http://www.w3.org/1999/xlink">
    <!-- Generator: Sketch 62 (91390) - https://sketch.com -->
    <title>icon-lock</title>
    <desc>Created with Sketch.</desc>
    <g id="icon-lock" stroke="none" stroke-width="1" fill="none" fill-rule="evenodd">
        <g id="Group-3-Copy-2" transform="translate(19.000000, 19.000000)">
            <rect id="Rectangle" stroke="#9FC522" stroke-width="4" fill="#FFFFFF" x="-2" y="-2" width="56" height="56" rx="25.7400016"></rect>
            <path d="M28.0647523,36.7148889 L23.933942,36.7148889 L24.5417024,31.5890573 C23.9940645,31.1450141 23.6359385,30.472282 23.6359385,29.7015404 C23.6333293,28.3647438 24.6920088,27.2839721 25.9990204,27.2839721 C27.3066855,27.2839721 28.362751,28.3674107 28.362751,29.7015404 C28.362751,30.4689484 28.0046298,31.1450141 27.4563384,31.5890573 L28.0647523,36.7148889 Z M20.3481556,17.0709791 C20.3481556,13.8973372 22.8791836,11.3050852 25.9937924,11.3050852 C29.1044801,11.3050852 31.6387756,13.8933369 31.6387756,17.0709791 L31.6387756,17.416346 L31.6387756,17.5743614 L31.6387756,20.7813399 C27.8758891,20.2912922 24.1116956,20.2912922 20.3481556,20.7813399 L20.3481556,17.0709791 Z M36.6505118,21.712097 C36.3878024,21.6460906 36.1303212,21.6034198 35.8708793,21.5440807 L35.8708793,17.5743614 L35.8708793,17.416346 L35.8708793,17.0709791 C35.8708793,11.5111052 31.4433774,7 25.9937924,7 C20.5566239,7 16.1225869,11.5111052 16.1225869,17.0709791 L16.1225869,21.5500813 C15.8631451,21.6100871 15.6063173,21.6520912 15.3494895,21.7187643 C14.5548264,21.9134499 14,22.6521884 14,23.4896032 L14,39.4364869 C14,40.2038948 14.4803268,40.9106302 15.1978762,41.1553207 C22.3988568,43.6148931 29.597877,43.6148931 36.8021251,41.1553207 C37.5222886,40.9106302 38,40.2012279 38,39.4298196 L38,23.4896032 C38,22.6555221 37.4451749,21.9074493 36.6505118,21.712097 L36.6505118,21.712097 Z" id="Fill-6-Copy-3" fill="#9FC522"></path>
        </g>
    </g>
</svg>