<?xml version="1.0" encoding="UTF-8"?>
<svg width="89px" height="89px" viewBox="0 0 89 89" version="1.1" xmlns="http://www.w3.org/2000/svg" xmlns:xlink="http://www.w3.org/1999/xlink">
    <!-- Generator: Sketch 62 (91390) - https://sketch.com -->
    <title>icon-electric-bill</title>
    <desc>Created with Sketch.</desc>
    <g id="icon-electric-bill" stroke="none" stroke-width="1" fill="none" fill-rule="evenodd">
        <g id="Group-3-Copy" transform="translate(13.000000, 3.000000)" fill="#FFFFFF" fill-rule="nonzero">
            <g id="noun_bill_2414191">
                <path d="M41.2104021,15.913117 L41.2104021,75.9875254 L36.7075322,83.5337658 L33.4962077,78.4079775 L30.2859463,83.5337658 L27.0746219,78.4079775 L23.8632975,83.5337658 L20.6519731,78.4079775 L17.4406487,83.5337658 L14.2293243,78.4079775 L11.0190629,83.5337658 L7.80773844,78.4079775 L4.59641402,83.5337658 L0.0935440412,75.9875254 L0.0935440412,15.913117 L41.2104021,15.913117 L41.2104021,15.913117 Z M59.2327034,65.1257867 L59.2327034,7.99376352 L57.3139876,4.93019617 L54.1026632,10.0559844 L50.8913387,4.93019617 L47.6800143,10.0559844 L44.4697529,4.93019617 L41.2573655,10.0559844 L38.0471041,4.93019617 L34.8357797,10.0559844 L31.6244553,4.93019617 L28.4131308,10.0559844 L25.2018064,4.93019617 L23.2830906,7.99376352 L23.2830906,12.3786404 L20.6999995,12.3786404 L20.6999995,7.63553236 L25.2018064,0.0892920393 L28.4131308,5.2150803 L31.6244553,0.0892920393 L34.8357797,5.2150803 L38.0471041,0.0892920393 L41.2573655,5.2150803 L44.4697529,0.0892920393 L47.6800143,5.2150803 L50.8913387,0.0892920393 L54.1026632,5.2150803 L57.3139876,0.0892920393 L61.8168576,7.63553236 L61.8168576,67.7099408 L44.5499988,67.4999982 L44.5499988,64.9158441 L59.2327034,65.1257867 Z M33.2549066,66.7277284 L8.05010254,66.7277284 L8.05010254,64.1435742 L33.2549066,64.1435742 L33.2549066,66.7277284 Z M33.2549066,60.0063764 L8.05010254,60.0063764 L8.05010254,57.4232853 L33.2549066,57.4232853 L33.2549066,60.0063764 Z M33.2549066,53.2860875 L8.05010254,53.2860875 L8.05010254,50.7029963 L33.2549066,50.7029963 L33.2549066,53.2860875 Z M33.2549066,46.5636725 L8.05010254,46.5636725 L8.05010254,43.9805814 L33.2549066,43.9805814 L33.2549066,46.5636725 Z M17.0420235,22.1752528 L23.5656574,22.1752528 L22.4261209,27.6964772 L25.6874063,27.6964772 L16.7401314,39.4341284 L18.8788883,29.0762518 L15.6176029,29.0762518 L17.0420235,22.1752528 L17.0420235,22.1752528 Z M38.627311,18.4962081 L2.67663518,18.4962081 L2.67663518,75.6282313 L4.59641402,78.6928616 L7.80773844,73.5670734 L11.0190629,78.6928616 L14.2293243,73.5670734 L17.4406487,78.6928616 L20.6509101,73.5670734 L23.8632975,78.6928616 L27.0746219,73.5670734 L30.2859463,78.6928616 L33.4962077,73.5670734 L36.7075322,78.6928616 L38.627311,75.6282313 L38.627311,18.4962081 L38.627311,18.4962081 Z" id="Shape"></path>
            </g>
        </g>
    </g>
</svg>