<?xml version="1.0" encoding="UTF-8"?>
<svg width="89px" height="89px" viewBox="0 0 89 89" version="1.1" xmlns="http://www.w3.org/2000/svg" xmlns:xlink="http://www.w3.org/1999/xlink">
    <!-- Generator: Sketch 62 (91390) - https://sketch.com -->
    <title>icon-shady</title>
    <desc>Created with Sketch.</desc>
    <g id="icon-shady" stroke="none" stroke-width="1" fill="none" fill-rule="evenodd">
        <g id="noun_Forest-Sun_796062-Copy" transform="translate(9.000000, 4.000000)" fill="#FFFFFF">
            <path d="M8.39999983,61.1999988 C13.0391913,61.1999988 16.7999997,57.4391869 16.7999997,52.799999 C16.7999997,48.160811 13.0391913,44.3999991 8.39999983,44.3999991 C3.76080833,44.3999991 0,48.160811 0,52.799999 C0,57.4391869 3.76080833,61.1999988 8.39999983,61.1999988 Z M41.9999992,80.3910224 C41.9999992,81.0612944 41.4577072,81.5999984 40.7887564,81.5999984 L38.411242,81.5999984 C37.7320229,81.5999984 37.1999993,81.0587144 37.1999993,80.3910224 L37.1999993,63.3599507 C37.9754632,63.5173667 38.7780808,63.5999987 39.5999992,63.5999987 C40.4219176,63.5999987 41.2245352,63.5173667 41.9999992,63.3599507 L41.9999992,80.3910224 Z M10.7999998,80.3917784 C10.7999998,81.0600584 10.2577078,81.5999984 9.58875701,81.5999984 L7.21124266,81.5999984 C6.53202347,81.5999984 5.99999988,81.0590624 5.99999988,80.3917784 L5.99999988,64.4521427 C6.76045067,64.6784627 7.56603225,64.7999987 8.39999983,64.7999987 C9.23396742,64.7999987 10.039549,64.6784627 10.7999998,64.4521427 L10.7999998,80.3917784 Z M27.5999995,80.4035624 C27.5999995,81.0563504 27.0577075,81.5999984 26.3887567,81.5999984 L24.0112423,81.5999984 C23.3320231,81.5999984 22.7999995,81.0643304 22.7999995,80.4035624 L22.7999995,71.6975626 C23.5670875,71.8949866 24.3712807,71.9999986 25.1999995,71.9999986 C26.0287183,71.9999986 26.8329115,71.8949866 27.5999995,71.6975626 L27.5999995,80.4035624 Z M56.3999989,80.4029504 C56.3999989,81.0644264 55.8577069,81.5999984 55.1887561,81.5999984 L52.8112418,81.5999984 C52.1320226,81.5999984 51.599999,81.0640544 51.599999,80.4029504 L51.599999,70.5323746 C52.3718666,70.7075266 53.1751333,70.7999986 53.9999989,70.7999986 C54.8248645,70.7999986 55.6281313,70.7075266 56.3999989,70.5323746 L56.3999989,80.4029504 Z M64.7999987,56.3999989 C64.7999987,62.3646708 59.9646744,67.1999987 53.9999989,67.1999987 C50.336099,67.1999987 47.0983287,65.3755187 45.1456491,62.5855188 C51.0234158,60.3494388 55.1999989,54.6624589 55.1999989,47.999999 C55.1999989,47.2004871 55.1398549,46.4150271 55.0238425,45.6478911 C60.50832,46.1636391 64.7999987,50.780627 64.7999987,56.3999989 Z M25.1999995,68.3999986 C29.1613998,68.3999986 32.5623918,66.0005987 34.0289525,62.5758348 C28.5408738,60.4769628 24.5414779,55.3676989 24.0507943,49.268075 C22.6525975,49.434875 21.3466724,49.902191 20.1994472,50.603603 C20.331158,51.315671 20.3999996,52.049795 20.3999996,52.799999 C20.3999996,56.4793669 18.7440752,59.7719628 16.1368329,61.9732068 C17.4471141,65.7158147 21.010094,68.3999986 25.1999995,68.3999986 Z M39.5999995,59.9999993 C46.2274155,59.9999993 51.5999995,54.6274189 51.5999995,47.9999993 C51.5999995,41.3725792 46.2274155,35.9999993 39.5999995,35.9999993 C32.9725829,35.9999993 27.5999995,41.3725792 27.5999995,47.9999993 C27.5999995,54.6274189 32.9725829,59.9999993 39.5999995,59.9999993 Z M71.9999986,21.6112436 C71.9999986,20.9422916 71.4563554,20.3999996 70.8035626,20.3999996 L63.5964347,20.3999996 C62.9356619,20.3999996 62.3999988,20.9320196 62.3999988,21.6112436 L62.3999988,23.9887555 C62.3999988,24.6577075 62.9436419,25.1999995 63.5964347,25.1999995 L70.8035626,25.1999995 C71.4643354,25.1999995 71.9999986,24.6679795 71.9999986,23.9887555 L71.9999986,21.6112436 Z M35.9999993,21.6112436 C35.9999993,20.9422916 35.4563561,20.3999996 34.8035633,20.3999996 L27.5964355,20.3999996 C26.9356627,20.3999996 26.3999995,20.9320196 26.3999995,21.6112436 L26.3999995,23.9887555 C26.3999995,24.6577075 26.9436427,25.1999995 27.5964355,25.1999995 L34.8035633,25.1999995 C35.4643361,25.1999995 35.9999993,24.6679795 35.9999993,23.9887555 L35.9999993,21.6112436 Z M50.3887562,9.59999981 C51.057707,9.59999981 51.599999,9.05635182 51.599999,8.40356383 L51.599999,1.19643598 C51.599999,0.535667989 51.0679754,0 50.3887562,0 L48.0112418,0 C47.3422911,0 46.7999991,0.543647989 46.7999991,1.19643598 L46.7999991,8.40356383 C46.7999991,9.06433182 47.3320227,9.59999981 48.0112418,9.59999981 L50.3887562,9.59999981 Z M66.1626119,38.0814592 C66.6356315,37.6084313 66.6346751,36.8405633 66.1730819,36.3789713 L61.0768728,31.2827634 C60.6096348,30.8155194 59.8546668,30.8129514 59.3743872,31.2932274 L57.6932305,32.9743913 C57.2202109,33.4474073 57.2211661,34.2152753 57.6827605,34.6768673 L62.7789696,39.7730872 C63.2462063,40.2403192 64.0011743,40.2428872 64.4814551,39.7626112 L66.1626119,38.0814592 Z M40.7067676,12.6256077 C41.1797872,12.1525918 41.178832,11.3847238 40.7172376,10.9231318 L35.6210285,5.82691188 C35.1537917,5.35967989 34.3988237,5.35711189 33.9185429,5.83738788 L32.2373862,7.51853985 C31.7643666,7.99156784 31.765323,8.75943583 32.2269162,9.22102782 L37.3231253,14.3172357 C37.7903632,14.7844797 38.5453312,14.7870477 39.0256108,14.3067717 L40.7067676,12.6256077 Z M57.6932305,12.6256077 C57.2202109,12.1525918 57.2211661,11.3847238 57.6827605,10.9231318 L62.7789696,5.82691188 C63.2462063,5.35967989 64.0011743,5.35711189 64.4814551,5.83738788 L66.1626119,7.51853985 C66.6356315,7.99156784 66.6346751,8.75943583 66.1730819,9.22102782 L61.0768728,14.3172357 C60.6096348,14.7844797 59.8546668,14.7870477 59.3743872,14.3067717 L57.6932305,12.6256077 Z M49.199999,31.1999994 C53.8391905,31.1999994 57.5999989,27.4391875 57.5999989,22.7999995 C57.5999989,18.1608116 53.8391905,14.3999997 49.199999,14.3999997 C44.5608075,14.3999997 40.7999992,18.1608116 40.7999992,22.7999995 C40.7999992,27.4391875 44.5608075,31.1999994 49.199999,31.1999994 Z" id="Shape"></path>
        </g>
    </g>
</svg>