<?xml version="1.0" encoding="UTF-8"?>
<svg width="89px" height="89px" viewBox="0 0 89 89" version="1.1" xmlns="http://www.w3.org/2000/svg" xmlns:xlink="http://www.w3.org/1999/xlink">
    <!-- Generator: Sketch 62 (91390) - https://sketch.com -->
    <title>icon-tree-sun</title>
    <desc>Created with Sketch.</desc>
    <g id="icon-tree-sun" stroke="none" stroke-width="1" fill="none" fill-rule="evenodd">
        <g id="noun_Tree-and-Sun_379364-Copy" transform="translate(6.000000, 6.000000)" fill="#FFFFFF" fill-rule="nonzero">
            <path d="M53.4015623,38.1468748 C59.6984372,38.1468748 64.8171872,33.0281248 64.8171872,26.7109374 C64.8171872,20.4140624 59.6984372,15.2749999 53.4015623,15.2749999 C47.1046873,15.2749999 41.9859373,20.3937499 41.9859373,26.7109374 C41.9859373,33.0078123 47.1046873,38.1468748 53.4015623,38.1468748 Z" id="Path"></path>
            <path d="M56.0218747,11.6999999 L53.4015623,3.85937498 L50.7812498,11.6999999 C51.6140623,11.5374999 52.4874998,11.4765624 53.4015623,11.4765624 C54.2953123,11.4562499 55.1687497,11.5374999 56.0218747,11.6999999 Z" id="Path"></path>
            <path d="M50.7609373,41.8234373 L53.3812498,49.6640623 L56.0015622,41.8234373 C55.1687497,41.9656248 54.2953123,42.0468748 53.3812498,42.0468748 C52.4874998,42.0671873 51.5937498,41.9859373 50.7609373,41.8234373 Z" id="Path"></path>
            <path d="M68.4328122,24.1312499 C68.5953122,24.9640624 68.6562497,25.8374999 68.6562497,26.7515624 C68.6562497,27.6656249 68.5749997,28.5390624 68.4328122,29.3718749 L76.2734372,26.7515624 L68.4328122,24.1312499 Z" id="Path"></path>
            <path d="M30.5093749,26.7718749 L38.3499998,29.3921874 C38.2078123,28.5593749 38.1265623,27.6859374 38.1265623,26.7718749 C38.1265623,25.8578124 38.2078123,24.9843749 38.3499998,24.1515624 L30.5093749,26.7718749 Z" id="Path"></path>
            <path d="M65.8937497,17.9562499 L69.5703122,10.5421875 L62.1765622,14.2390624 C62.8671872,14.7265624 63.5578122,15.2953124 64.1874997,15.9249999 C64.8374997,16.5953124 65.4062497,17.2656249 65.8937497,17.9562499 Z" id="Path"></path>
            <path d="M42.5953123,37.5781248 C41.9453123,36.9281248 41.3765623,36.2578123 40.9093748,35.5671873 L37.2328123,42.9812498 L44.6265623,39.2843748 C43.9156248,38.7968748 43.2249998,38.2281248 42.5953123,37.5781248 Z" id="Path"></path>
            <path d="M64.1874997,37.5781248 C63.5374997,38.2281248 62.8671872,38.7968748 62.1765622,39.2843748 L69.5703122,42.9812498 L65.8937497,35.5671873 C65.4062497,36.2578123 64.8374997,36.9281248 64.1874997,37.5781248 Z" id="Path"></path>
            <path d="M42.5953123,15.9453124 C43.2453123,15.2953124 43.9156248,14.7265624 44.6062498,14.2593749 L37.2124998,10.5625 L40.8890623,17.9765624 C41.3765623,17.2656249 41.9453123,16.5953124 42.5953123,15.9453124 Z" id="Path"></path>
            <polygon id="Path" points="22.9328124 57.2203122 38.1671873 57.2203122 24.5781249 38.1874998 34.3687498 38.1874998 24.2124999 22.9531249 30.5499999 22.9531249 19.1343749 0.1015625 7.71874996 22.9531249 14.0562499 22.9531249 3.89999998 38.1874998 13.6906249 38.1874998 0.1015625 57.2203122 15.3359374 57.2203122 15.3359374 68.6562497 0.1015625 68.6562497 0.1015625 76.2734372 76.2328122 76.2734372 76.2328122 68.6562497 22.9328124 68.6562497"></polygon>
        </g>
    </g>
</svg>